<?xml version="1.0" encoding="utf-8"?>
<!-- Generator: Adobe Illustrator 25.1.0, SVG Export Plug-In . SVG Version: 6.00 Build 0)  -->
<svg version="1.1" id="Layer_1" xmlns="http://www.w3.org/2000/svg" xmlns:xlink="http://www.w3.org/1999/xlink" x="0px" y="0px"
	 viewBox="0 0 256 256" style="enable-background:new 0 0 256 256;" xml:space="preserve">
<style type="text/css">
	.st0{fill:#7E8387;}
	.st1{fill:#ADB1B4;}
	.st2{fill:#D4D6D7;}
	.st3{fill:url(#SVGID_1_);}
	.st4{fill:#904F29;}
	.st5{fill:url(#SVGID_2_);}
	.st6{fill:url(#SVGID_3_);}
	.st7{fill:url(#SVGID_4_);}
	.st8{fill:url(#SVGID_5_);}
	.st9{fill:url(#SVGID_6_);}
	.st10{fill:url(#SVGID_7_);}
	.st11{fill:url(#SVGID_8_);}
	.st12{fill:url(#SVGID_9_);}
	.st13{fill:#A08FAE;}
	.st14{fill:#989C9F;}
	.st15{fill:#515A60;}
</style>
<g>
	<path class="st0" d="M141.72,238.38h-1.85c-1.2-1.68-2.97-3.25-5.34-4.61c-9.53-5.5-24.94-5.53-34.42-0.06
		c-2.39,1.38-4.16,2.97-5.34,4.67h-1.73v2.72l0.03,0.01c0.29,3.38,2.67,6.72,7.15,9.3c9.53,5.5,24.94,5.53,34.42,0.06
		c4.76-2.75,7.11-6.36,7.07-9.97l0,0V238.38z"/>
	<path class="st1" d="M134.65,248.35c-9.47,5.47-24.88,5.44-34.42-0.06c-9.53-5.5-9.58-14.4-0.11-19.87
		c9.47-5.47,24.88-5.44,34.42,0.06C144.08,233.98,144.12,242.88,134.65,248.35z"/>
	<path class="st2" d="M134.65,248.35c-9.47,5.47-24.88,5.44-34.42-0.06c-9.53-5.5-9.58-14.4-0.11-19.87
		c9.47-5.47,24.88-5.44,34.42,0.06C144.08,233.98,144.12,242.88,134.65,248.35z"/>
	<path class="st1" d="M134.32,248.16c-9.39,5.42-24.66,5.39-34.1-0.06c-9.45-5.45-9.49-14.27-0.11-19.69
		c9.39-5.42,24.66-5.39,34.1,0.06C143.66,233.92,143.71,242.74,134.32,248.16z"/>
	<linearGradient id="SVGID_1_" gradientUnits="userSpaceOnUse" x1="93.7635" y1="214.0676" x2="141.0196" y2="214.0676">
		<stop  offset="0" style="stop-color:#6E392D"/>
		<stop  offset="0.1615" style="stop-color:#743D30"/>
		<stop  offset="0.5058" style="stop-color:#814E38"/>
		<stop  offset="0.7526" style="stop-color:#87563C"/>
	</linearGradient>
	<path class="st3" d="M141.02,188.99v47.58h-0.05c0.14,1.27-0.03,2.57-0.51,3.82c-0.33,0.87-0.81,1.73-1.46,2.57
		c-0.16,0.24-0.35,0.46-0.57,0.7c-0.16,0.19-0.35,0.38-0.54,0.57c-0.7,0.7-1.52,1.35-2.44,2c-0.19,0.13-0.38,0.24-0.57,0.38
		c-0.16,0.11-0.35,0.22-0.54,0.33c-0.05,0.03-0.14,0.08-0.19,0.11c-1.27,0.73-2.65,1.35-4.11,1.87c-0.19,0.08-0.38,0.16-0.57,0.22
		c-0.19,0.05-0.35,0.13-0.54,0.16c-1.84,0.62-3.79,1.06-5.79,1.33c-0.19,0.03-0.38,0.05-0.57,0.08c-0.19,0.03-0.35,0.05-0.54,0.05
		c-2.76,0.33-5.63,0.33-8.42,0.08c-0.19-0.03-0.35-0.03-0.54-0.05c-0.19-0.03-0.38-0.05-0.57-0.08c-2.76-0.32-5.44-0.97-7.85-1.89
		c-0.19-0.05-0.38-0.11-0.54-0.19c-0.19-0.08-0.38-0.16-0.57-0.24c-1-0.43-1.92-0.89-2.81-1.38c-0.89-0.52-1.71-1.06-2.41-1.62
		l-0.57-0.49c-0.19-0.16-0.38-0.33-0.54-0.49c-0.65-0.62-1.22-1.27-1.68-1.92c-1.16-1.62-1.73-3.36-1.76-5.09v-49.67h0.57
		c0.92-2.41,3.03-4.74,6.31-6.63c2.46-1.41,5.3-2.46,8.39-3.11c8.39-1.79,18.24-0.73,25.01,3.19c3.82,2.19,6.06,4.95,6.74,7.79
		L141.02,188.99z"/>
	<g>
		<g>
			<polygon class="st4" points="141.05,236.84 140.87,236.32 141.1,236.83 			"/>
		</g>
		<g>
			<g>
				<linearGradient id="SVGID_2_" gradientUnits="userSpaceOnUse" x1="96.585" y1="215.755" x2="169.2262" y2="215.755">
					<stop  offset="0" style="stop-color:#582E24"/>
					<stop  offset="0.1615" style="stop-color:#64352A"/>
					<stop  offset="0.2376" style="stop-color:#69392D"/>
					<stop  offset="0.5624" style="stop-color:#7A4A36"/>
					<stop  offset="0.7526" style="stop-color:#815139"/>
				</linearGradient>
				<path class="st5" d="M138.99,187.28v55.67c-0.16,0.24-0.35,0.46-0.57,0.7c-0.16,0.19-0.35,0.38-0.54,0.57v-56.95H138.99z"/>
			</g>
			<g>
				<linearGradient id="SVGID_3_" gradientUnits="userSpaceOnUse" x1="96.5966" y1="214.6851" x2="169.2187" y2="214.6851">
					<stop  offset="0" style="stop-color:#582E24"/>
					<stop  offset="0.1615" style="stop-color:#64352A"/>
					<stop  offset="0.2376" style="stop-color:#69392D"/>
					<stop  offset="0.5624" style="stop-color:#7A4A36"/>
					<stop  offset="0.7526" style="stop-color:#815139"/>
				</linearGradient>
				<path class="st6" d="M141.02,188.99v47.58h-0.05c0.14,1.27-0.03,2.57-0.51,3.82v-51.4H141.02z"/>
			</g>
			<g>
				<linearGradient id="SVGID_4_" gradientUnits="userSpaceOnUse" x1="96.5854" y1="219.0429" x2="169.229" y2="219.0429">
					<stop  offset="0" style="stop-color:#582E24"/>
					<stop  offset="0.1615" style="stop-color:#64352A"/>
					<stop  offset="0.2376" style="stop-color:#69392D"/>
					<stop  offset="0.5624" style="stop-color:#7A4A36"/>
					<stop  offset="0.7526" style="stop-color:#815139"/>
				</linearGradient>
				<path class="st7" d="M98.31,192.72v52.64l-0.57-0.49c-0.19-0.16-0.38-0.33-0.54-0.49v-51.67H98.31z"/>
			</g>
			<g>
				<linearGradient id="SVGID_5_" gradientUnits="userSpaceOnUse" x1="96.5833" y1="220.1933" x2="169.2423" y2="220.1933">
					<stop  offset="0" style="stop-color:#582E24"/>
					<stop  offset="0.1615" style="stop-color:#64352A"/>
					<stop  offset="0.2376" style="stop-color:#69392D"/>
					<stop  offset="0.5624" style="stop-color:#7A4A36"/>
					<stop  offset="0.7526" style="stop-color:#815139"/>
				</linearGradient>
				<path class="st8" d="M104.64,191.58v57.22c-0.19-0.05-0.38-0.11-0.54-0.19c-0.19-0.08-0.38-0.16-0.57-0.24v-56.78H104.64z"/>
			</g>
			<g>
				<linearGradient id="SVGID_6_" gradientUnits="userSpaceOnUse" x1="96.5806" y1="221.2082" x2="169.242" y2="221.2082">
					<stop  offset="0" style="stop-color:#582E24"/>
					<stop  offset="0.1615" style="stop-color:#64352A"/>
					<stop  offset="0.2376" style="stop-color:#69392D"/>
					<stop  offset="0.5624" style="stop-color:#7A4A36"/>
					<stop  offset="0.7526" style="stop-color:#815139"/>
				</linearGradient>
				<path class="st9" d="M113.6,191.58v59.25c-0.19-0.03-0.35-0.03-0.54-0.05c-0.19-0.03-0.38-0.05-0.57-0.08v-59.11H113.6z"/>
			</g>
			<g>
				<linearGradient id="SVGID_7_" gradientUnits="userSpaceOnUse" x1="96.5842" y1="220.7888" x2="169.2278" y2="220.7888">
					<stop  offset="0" style="stop-color:#582E24"/>
					<stop  offset="0.1615" style="stop-color:#64352A"/>
					<stop  offset="0.2376" style="stop-color:#69392D"/>
					<stop  offset="0.5624" style="stop-color:#7A4A36"/>
					<stop  offset="0.7526" style="stop-color:#815139"/>
				</linearGradient>
				<path class="st10" d="M123.13,190.83v59.79c-0.19,0.03-0.38,0.05-0.57,0.08c-0.19,0.03-0.35,0.05-0.54,0.05v-59.92H123.13z"/>
			</g>
			<g>
				<linearGradient id="SVGID_8_" gradientUnits="userSpaceOnUse" x1="96.5839" y1="220.0578" x2="169.2275" y2="220.0578">
					<stop  offset="0" style="stop-color:#582E24"/>
					<stop  offset="0.1615" style="stop-color:#64352A"/>
					<stop  offset="0.2376" style="stop-color:#69392D"/>
					<stop  offset="0.5624" style="stop-color:#7A4A36"/>
					<stop  offset="0.7526" style="stop-color:#815139"/>
				</linearGradient>
				<path class="st11" d="M130.03,190.83v58.08c-0.19,0.08-0.38,0.16-0.57,0.22c-0.19,0.05-0.35,0.13-0.54,0.16v-58.46H130.03z"/>
			</g>
			<g>
				<linearGradient id="SVGID_9_" gradientUnits="userSpaceOnUse" x1="96.5743" y1="217.4598" x2="169.2357" y2="217.4598">
					<stop  offset="0" style="stop-color:#582E24"/>
					<stop  offset="0.1615" style="stop-color:#64352A"/>
					<stop  offset="0.2376" style="stop-color:#69392D"/>
					<stop  offset="0.5624" style="stop-color:#7A4A36"/>
					<stop  offset="0.7526" style="stop-color:#815139"/>
				</linearGradient>
				<path class="st12" d="M135.45,187.99v58.25c-0.19,0.13-0.38,0.24-0.57,0.38c-0.16,0.11-0.35,0.22-0.54,0.33v-58.95H135.45z"/>
			</g>
		</g>
	</g>
	<path class="st13" d="M141.02,193.95v3.88h-0.05c0.14,1.27-0.03,2.57-0.51,3.82c-0.33,0.87-0.81,1.73-1.46,2.57
		c-0.16,0.24-0.35,0.46-0.57,0.7c-0.16,0.19-0.35,0.38-0.54,0.57c-0.7,0.7-1.52,1.35-2.44,2c-0.19,0.13-0.38,0.24-0.57,0.38
		c-0.16,0.11-0.35,0.22-0.54,0.33c-0.05,0.03-0.14,0.08-0.19,0.11c-1.27,0.73-2.65,1.35-4.11,1.87c-0.19,0.08-0.38,0.16-0.57,0.22
		c-0.19,0.05-0.35,0.13-0.54,0.16c-1.84,0.62-3.79,1.06-5.79,1.33c-0.19,0.03-0.38,0.05-0.57,0.08c-0.19,0.03-0.35,0.05-0.54,0.05
		c-2.76,0.33-5.63,0.33-8.42,0.08c-0.19-0.03-0.35-0.03-0.54-0.05c-0.19-0.03-0.38-0.05-0.57-0.08c-2.76-0.32-5.44-0.97-7.85-1.89
		c-0.19-0.05-0.38-0.11-0.54-0.19c-0.19-0.08-0.38-0.16-0.57-0.24c-1-0.43-1.92-0.89-2.81-1.38c-0.89-0.52-1.71-1.06-2.41-1.62
		l-0.57-0.49c-0.19-0.16-0.38-0.33-0.54-0.49c-0.65-0.62-1.22-1.27-1.68-1.92c-1.16-1.62-1.73-3.36-1.76-5.09v-5.96h0.57
		c0.92-2.41,3.03-4.74,6.31-6.63c2.46-1.41,5.3-2.46,8.39-3.11c8.39-1.79,18.24-0.73,25.01,3.19c3.82,2.19,6.06,4.95,6.74,7.79
		L141.02,193.95z"/>
	<path class="st0" d="M136.28,203.61c-10.37,5.99-27.23,5.96-37.66-0.07c-10.43-6.02-10.49-15.76-0.12-21.74
		c10.37-5.99,27.23-5.96,37.66,0.07C146.59,187.89,146.65,197.63,136.28,203.61z"/>
	<polygon class="st0" points="144.02,186.92 144.02,192.71 115.11,204.27 90.76,193.35 90.76,186.92 	"/>
	<path class="st2" d="M136.28,197.82c-10.37,5.99-27.23,5.96-37.66-0.07c-10.43-6.02-10.49-15.76-0.12-21.74s27.23-5.96,37.66,0.07
		C146.59,182.1,146.65,191.84,136.28,197.82z"/>
	<path class="st1" d="M135.66,197.03c-10.07,5.82-26.47,5.79-36.62-0.08c-1.14-0.65-2.14-1.33-3-2.06
		c-7.04-5.85-6.09-13.91,2.9-19.08c10.07-5.82,26.47-5.79,36.62,0.08c0.24,0.13,0.49,0.3,0.73,0.46
		C145.7,182.19,145.51,191.34,135.66,197.03z"/>
	<path class="st14" d="M135.66,197.03c-10.07,5.82-26.47,5.79-36.62-0.08c-1.14-0.65-2.14-1.33-3-2.06
		c8.25,1.68,14.86-0.11,24.63-3.3c8.42-2.76,13.34-10.53,15.62-15.24C145.7,182.19,145.51,191.34,135.66,197.03z"/>
	<path class="st15" d="M128.77,181.43c-6.32-3.65-16.54-3.67-22.83-0.04c-6.28,3.63-6.25,9.53,0.07,13.18
		c6.32,3.65,16.54,3.67,22.83,0.04C135.12,190.98,135.09,185.08,128.77,181.43z"/>
</g>
</svg>
