<?xml version="1.0" encoding="utf-8"?>
<!-- Generator: Adobe Illustrator 25.1.0, SVG Export Plug-In . SVG Version: 6.00 Build 0)  -->
<svg version="1.1" id="Layer_1" xmlns="http://www.w3.org/2000/svg" xmlns:xlink="http://www.w3.org/1999/xlink" x="0px" y="0px"
	 viewBox="0 0 256 256" style="enable-background:new 0 0 256 256;" xml:space="preserve">
<style type="text/css">
	.st0{fill:#B8A8A2;}
	.st1{fill:#F6F4E0;}
	.st2{fill:#BDB0AB;}
	.st3{fill:#815C5D;}
	.st4{fill:#CFBD9D;}
	.st5{fill:#DFD3CD;}
	.st6{fill:#FFF5CE;}
	.st7{fill:#B5A880;}
</style>
<g>
	<g>
		<g>
			<g>
				<polygon class="st0" points="46.88,167.69 38.01,162.58 38.01,194.97 46.88,200.09 				"/>
				<polygon class="st1" points="46.88,167.69 38.01,162.58 74.05,142.04 82.92,147.16 				"/>
				<polygon class="st2" points="97.41,95.05 88.55,89.93 74.05,142.04 82.92,147.16 				"/>
			</g>
			<g>
				<polygon class="st3" points="95.9,139.39 46.88,167.69 46.88,200.09 95.9,171.79 				"/>
				<polygon class="st3" points="105.65,94.16 97.41,95.05 82.92,147.16 95.9,139.39 				"/>
				<polygon class="st4" points="104.09,96.11 96.83,97.13 91.56,116.09 98.82,115.07 				"/>
			</g>
			<polygon class="st5" points="96.79,89.04 105.65,94.16 97.41,95.05 88.55,89.93 			"/>
		</g>
		<g>
			<polygon class="st4" points="154.56,208.05 170.65,198.76 170.65,209.19 154.56,218.48 			"/>
			<polygon class="st6" points="66.83,157.4 82.92,148.11 170.65,198.76 154.56,208.05 			"/>
			<polygon class="st7" points="154.56,208.05 66.83,157.4 66.83,167.82 154.56,218.48 			"/>
		</g>
		<g>
			<polygon class="st4" points="136.64,218.39 152.73,209.11 152.73,219.54 136.64,228.82 			"/>
			<polygon class="st6" points="48.91,167.74 64.99,158.46 152.73,209.11 136.64,218.39 			"/>
			<polygon class="st7" points="136.64,218.39 48.91,167.74 48.91,178.17 136.64,228.82 			"/>
		</g>
		<g>
			<polygon class="st4" points="85.44,138.08 173.17,188.73 178.45,169.77 90.72,119.12 			"/>
			<polygon class="st6" points="185.71,168.75 178.45,169.77 90.72,119.12 97.97,118.1 			"/>
		</g>
		<g>
			<polygon class="st4" points="91.56,116.09 179.29,166.74 184.57,147.78 96.83,97.13 			"/>
			<polygon class="st6" points="191.82,146.76 184.57,147.78 96.83,97.13 104.09,96.11 			"/>
		</g>
		<g>
			<g>
				<polygon class="st0" points="143.48,223.47 134.61,218.35 134.61,250.74 143.48,255.86 				"/>
				<polygon class="st1" points="143.48,223.47 134.61,218.35 170.65,197.81 179.51,202.93 				"/>
				<polygon class="st2" points="194.01,150.82 185.15,145.7 170.65,197.81 179.51,202.93 				"/>
			</g>
			<g>
				<polygon class="st3" points="192.5,195.16 143.48,223.47 143.48,255.86 192.5,227.56 				"/>
				<polygon class="st3" points="202.25,149.93 194.01,150.82 179.51,202.93 192.5,195.16 				"/>
			</g>
			<polygon class="st5" points="193.39,144.81 202.25,149.93 194.01,150.82 185.15,145.7 			"/>
		</g>
	</g>
</g>
</svg>
