<?xml version="1.0" encoding="utf-8"?>
<!-- Generator: Adobe Illustrator 25.1.0, SVG Export Plug-In . SVG Version: 6.00 Build 0)  -->
<svg version="1.1" id="Layer_1" xmlns="http://www.w3.org/2000/svg" xmlns:xlink="http://www.w3.org/1999/xlink" x="0px" y="0px"
	 viewBox="0 0 256 256" style="enable-background:new 0 0 256 256;" xml:space="preserve">
<style type="text/css">
	.st0{fill:#D8C8C2;}
	.st1{fill:#737779;}
	.st2{fill:#9BA0A4;}
	.st3{fill:#9C8181;}
	.st4{fill:#715E56;}
	.st5{fill:#C9B8B0;}
	.st6{fill:#B59E95;}
	.st7{fill:#F6F4E0;}
	.st8{fill:#795744;}
	.st9{fill:#824B2E;}
	.st10{fill:#E7A271;}
	.st11{fill:#F4AB76;}
	.st12{fill:#BC8B6F;}
	.st13{fill:#F4B586;}
</style>
<g>
	<g>
		<g>
			<g>
				<polygon class="st0" points="69.89,153.98 27.92,181.31 25.24,179.76 20.01,176.17 69.89,147.37 				"/>
				<polygon class="st1" points="69.89,153.98 114.55,128.2 119.78,118.57 69.89,147.37 				"/>
			</g>
			<g>
				<polygon class="st2" points="72.58,155.53 27.92,181.31 22.69,177.72 72.58,148.92 				"/>
				<polygon class="st2" points="72.58,155.53 117.23,129.75 122.46,120.12 72.58,148.92 				"/>
			</g>
			<g>
				<polygon class="st3" points="153,189.55 139.77,197.2 122.47,251.36 130.52,256 				"/>
				<polygon class="st4" points="171.32,178.98 184.56,171.34 196.65,217.81 188.61,213.17 				"/>
			</g>
			<g>
				<polygon class="st5" points="161.05,194.2 147.81,201.84 130.52,256 143.75,248.36 				"/>
				<polygon class="st5" points="179.36,183.62 192.6,175.98 209.89,210.17 196.65,217.81 				"/>
			</g>
			<g>
				<polygon class="st6" points="70.4,141.86 57.17,149.51 39.87,203.67 53.11,196.02 				"/>
				<polygon class="st3" points="49.12,144.86 57.17,149.51 39.87,203.67 31.83,199.02 				"/>
				<polygon class="st2" points="80.68,126.65 93.91,119.01 135.33,167.13 122.09,174.77 				"/>
			</g>
			<g>
				<polygon class="st7" points="168.58,210.96 126.6,238.29 123.92,236.74 118.7,233.14 168.58,204.34 				"/>
				<polygon class="st7" points="168.58,210.96 221.14,177.09 218.46,175.54 168.58,204.34 				"/>
				<polygon class="st0" points="171.26,212.5 126.6,238.29 121.38,234.69 171.26,205.89 				"/>
				<polygon class="st0" points="171.26,212.5 215.92,186.72 221.14,177.09 171.26,205.89 				"/>
			</g>
			<g>
				<polygon class="st8" points="99.91,122.98 192.25,176.18 188.68,178.24 99.91,127.09 				"/>
				<polygon class="st9" points="209.31,185.99 209.31,190.11 195.82,182.35 192.88,176.54 				"/>
				<polygon class="st10" points="226.5,176.07 209.31,185.99 192.88,176.54 192.6,175.98 192.25,176.18 99.91,122.98 117.1,113.05 
									"/>
				<polygon class="st11" points="217.91,181.03 108.51,118.01 117.1,113.05 226.5,176.07 				"/>
				<polygon class="st8" points="226.5,176.07 209.31,185.99 209.31,190.11 226.5,180.19 				"/>
			</g>
			<g>
				<polygon class="st9" points="17.33,170.65 126.74,233.67 126.74,237.79 17.33,174.77 				"/>
				<polygon class="st10" points="17.33,170.65 126.74,233.67 143.93,223.74 34.52,160.72 				"/>
				<polygon class="st12" points="143.93,223.74 126.74,233.67 126.74,237.79 143.93,227.86 				"/>
			</g>
			<g>
				<polygon class="st12" points="209.31,185.99 226.5,176.07 226.5,180.19 209.31,190.11 				"/>
			</g>
			<g>
				<polygon class="st12" points="203.44,165.6 136.92,204.01 136.92,208.12 203.44,169.72 				"/>
				<polygon class="st9" points="38.24,147.03 136.92,204.01 136.92,208.12 38.24,151.15 				"/>
				<polygon class="st11" points="38.24,147.03 136.92,204.01 203.44,165.6 104.76,108.63 				"/>
			</g>
		</g>
		<g>
			<polygon class="st13" points="145.24,199.21 46.55,142.23 54.87,137.43 153.55,194.41 			"/>
			<polygon class="st10" points="153.55,194.41 54.87,137.43 63.18,132.63 161.87,189.6 			"/>
			<polygon class="st11" points="135.33,228.71 25.92,165.69 34.51,160.73 143.92,223.75 			"/>
			<polygon class="st13" points="170.18,184.8 71.5,127.83 79.81,123.03 178.5,180 			"/>
			<polygon class="st10" points="178.5,180 79.81,123.03 88.13,118.23 186.81,175.2 			"/>
			<polygon class="st13" points="195.13,170.4 96.44,113.43 104.76,108.63 203.44,165.6 			"/>
		</g>
	</g>
</g>
</svg>
